{
	"asset":{
		"generator":"Khronos glTF Blender I/O v4.5.48",
		"version":"2.0"
	},
	"extensionsUsed":[
		"KHR_materials_specular",
		"KHR_materials_ior"
	],
	"scene":0,
	"scenes":[
		{
			"name":"Scene",
			"nodes":[
				0,
				1,
				2,
				3,
				4,
				5,
				6,
				7,
				8,
				9,
				10,
				11,
				12,
				13,
				14,
				15,
				16,
				17,
				18,
				19,
				20,
				21,
				22
			]
		}
	],
	"nodes":[
		{
			"mesh":0,
			"name":"Bubbled_3",
			"translation":[
				-0.0048905024304986,
				0.30095434188842773,
				-0.22009584307670593
			]
		},
		{
			"mesh":1,
			"name":"Blobbed_3",
			"translation":[
				0.0008173906244337559,
				0.2043774127960205,
				18.881656646728516
			]
		},
		{
			"mesh":2,
			"name":"Blobbed_4",
			"translation":[
				0.1519218534231186,
				0.30086755752563477,
				22.027347564697266
			]
		},
		{
			"mesh":3,
			"name":"Blobbed_2",
			"translation":[
				-0.07392018288373947,
				0.39035916328430176,
				15.499333381652832
			]
		},
		{
			"mesh":4,
			"name":"Blobbed_1",
			"translation":[
				-0.0762094035744667,
				0.1158597469329834,
				11.190200805664062
			]
		},
		{
			"mesh":5,
			"name":"Blobbed_5",
			"translation":[
				0.029687808826565742,
				-0.04593229293823242,
				26.12073516845703
			]
		},
		{
			"mesh":6,
			"name":"Bubbled_5",
			"translation":[
				-0.03510066866874695,
				0.0012352466583251953,
				7.173734188079834
			]
		},
		{
			"mesh":7,
			"name":"Boxed_3",
			"translation":[
				0.037969887256622314,
				0.3826413154602051,
				38.47797775268555
			]
		},
		{
			"mesh":8,
			"name":"Boxed_4",
			"translation":[
				0.008416902273893356,
				0.3564913272857666,
				41.344764709472656
			]
		},
		{
			"mesh":9,
			"name":"Boxed_2",
			"translation":[
				0.06363026797771454,
				0.2566967010498047,
				35.67284393310547
			]
		},
		{
			"mesh":10,
			"name":"Boxed_1",
			"translation":[
				0.04153899475932121,
				-0.0005923211574554443,
				31.51188850402832
			]
		},
		{
			"mesh":11,
			"name":"Bubbled_1",
			"translation":[
				-0.06639653444290161,
				0.07615852355957031,
				-7.499255180358887
			]
		},
		{
			"mesh":12,
			"name":"Boxed_5",
			"translation":[
				-0.031161706894636154,
				0.1800248622894287,
				44.643978118896484
			]
		},
		{
			"mesh":13,
			"name":"Bubbled_4",
			"translation":[
				-0.03889761120080948,
				0.306607723236084,
				3.885148286819458
			]
		},
		{
			"mesh":14,
			"name":"Bubbled_2",
			"translation":[
				0.036789581179618835,
				0.17958831787109375,
				-3.6908199787139893
			]
		},
		{
			"mesh":15,
			"name":"Dead_2",
			"translation":[
				-0.17947645485401154,
				-0.08201852440834045,
				-28.752347946166992
			]
		},
		{
			"mesh":16,
			"name":"Dead_3",
			"translation":[
				-0.09519723802804947,
				0.2604537010192871,
				-25.917530059814453
			]
		},
		{
			"mesh":17,
			"name":"Dead_4",
			"translation":[
				0.09057269245386124,
				0.05098503828048706,
				-23.56696891784668
			]
		},
		{
			"mesh":18,
			"name":"Dead_5",
			"translation":[
				-0.03904480114579201,
				0.0977790355682373,
				-20.628751754760742
			]
		},
		{
			"mesh":19,
			"name":"Pine_1",
			"translation":[
				0.0029698708094656467,
				-0.07897225022315979,
				-17.747243881225586
			]
		},
		{
			"mesh":20,
			"name":"Pine_2",
			"translation":[
				-0.0035769380629062653,
				-0.1202947199344635,
				-14.553108215332031
			]
		},
		{
			"mesh":21,
			"name":"Pine_3",
			"translation":[
				-0.03368695452809334,
				-0.10495343804359436,
				-11.69643783569336
			]
		},
		{
			"mesh":22,
			"name":"Domed_1",
			"scale":[
				0.7927526831626892,
				0.7867423295974731,
				0.7867423295974731
			],
			"translation":[
				-0.36398547887802124,
				0.1421208381652832,
				-33.88273239135742
			]
		}
	],
	"materials":[
		{
			"doubleSided":true,
			"extensions":{
				"KHR_materials_specular":{
					"specularColorFactor":[
						0.0,
						0.0,
						0.0
					]
				},
				"KHR_materials_ior":{
					"ior":1000
				}
			},
			"name":"TreeDarkGreen",
			"pbrMetallicRoughness":{
				"baseColorTexture":{
					"index":0
				},
				"metallicFactor":0,
				"roughnessFactor":0
			}
		}
	],
	"meshes":[
		{
			"name":"DarkGreenTree_mergedObject_1.626",
			"primitives":[
				{
					"attributes":{
						"POSITION":0,
						"NORMAL":1,
						"TEXCOORD_0":2,
						"COLOR_0":3
					},
					"indices":4
				}
			]
		},
		{
			"name":"DarkGreenTree_mergedObject_1.001",
			"primitives":[
				{
					"attributes":{
						"POSITION":5,
						"NORMAL":6,
						"TEXCOORD_0":7,
						"COLOR_0":8
					},
					"indices":9
				}
			]
		},
		{
			"name":"DarkGreenTree_mergedObject_1.003",
			"primitives":[
				{
					"attributes":{
						"POSITION":10,
						"NORMAL":11,
						"TEXCOORD_0":12,
						"COLOR_0":13
					},
					"indices":14
				}
			]
		},
		{
			"name":"DarkGreenTree_mergedObject_1.007",
			"primitives":[
				{
					"attributes":{
						"POSITION":15,
						"NORMAL":16,
						"TEXCOORD_0":17,
						"COLOR_0":18
					},
					"indices":19
				}
			]
		},
		{
			"name":"DarkGreenTree_mergedObject_1.010",
			"primitives":[
				{
					"attributes":{
						"POSITION":20,
						"NORMAL":21,
						"TEXCOORD_0":22,
						"COLOR_0":23
					},
					"indices":24
				}
			]
		},
		{
			"name":"DarkGreenTree_mergedObject_1.018",
			"primitives":[
				{
					"attributes":{
						"POSITION":25,
						"NORMAL":26,
						"TEXCOORD_0":27,
						"COLOR_0":28
					},
					"indices":29
				}
			]
		},
		{
			"name":"DarkGreenTree_mergedObject_1.023",
			"primitives":[
				{
					"attributes":{
						"POSITION":30,
						"NORMAL":31,
						"TEXCOORD_0":32,
						"COLOR_0":33
					},
					"indices":34
				}
			]
		},
		{
			"name":"DarkGreenTree_mergedObject_1.025",
			"primitives":[
				{
					"attributes":{
						"POSITION":35,
						"NORMAL":36,
						"TEXCOORD_0":37,
						"COLOR_0":38
					},
					"indices":39
				}
			]
		},
		{
			"name":"DarkGreenTree_mergedObject_1.026",
			"primitives":[
				{
					"attributes":{
						"POSITION":40,
						"NORMAL":41,
						"TEXCOORD_0":42,
						"COLOR_0":43
					},
					"indices":44
				}
			]
		},
		{
			"name":"DarkGreenTree_mergedObject_1.027",
			"primitives":[
				{
					"attributes":{
						"POSITION":45,
						"NORMAL":46,
						"TEXCOORD_0":47,
						"COLOR_0":48
					},
					"indices":49
				}
			]
		},
		{
			"name":"DarkGreenTree_mergedObject_1.032",
			"primitives":[
				{
					"attributes":{
						"POSITION":50,
						"NORMAL":51,
						"TEXCOORD_0":52,
						"COLOR_0":53
					},
					"indices":54
				}
			]
		},
		{
			"name":"DarkGreenTree_mergedObject_1.035",
			"primitives":[
				{
					"attributes":{
						"POSITION":55,
						"NORMAL":56,
						"TEXCOORD_0":57,
						"COLOR_0":58
					},
					"indices":59
				}
			]
		},
		{
			"name":"DarkGreenTree_mergedObject_1.036",
			"primitives":[
				{
					"attributes":{
						"POSITION":60,
						"NORMAL":61,
						"TEXCOORD_0":62,
						"COLOR_0":63
					},
					"indices":64
				}
			]
		},
		{
			"name":"DarkGreenTree_mergedObject_1.038",
			"primitives":[
				{
					"attributes":{
						"POSITION":65,
						"NORMAL":66,
						"TEXCOORD_0":67,
						"COLOR_0":68
					},
					"indices":69
				}
			]
		},
		{
			"name":"DarkGreenTree_mergedObject_1.039",
			"primitives":[
				{
					"attributes":{
						"POSITION":70,
						"NORMAL":71,
						"TEXCOORD_0":72,
						"COLOR_0":73
					},
					"indices":74
				}
			]
		},
		{
			"name":"DarkGreenTree_mergedObject_1.428",
			"primitives":[
				{
					"attributes":{
						"POSITION":75,
						"NORMAL":76,
						"TEXCOORD_0":77,
						"COLOR_0":78
					},
					"indices":79
				}
			]
		},
		{
			"name":"DarkGreenTree_mergedObject_1.739",
			"primitives":[
				{
					"attributes":{
						"POSITION":80,
						"NORMAL":81,
						"TEXCOORD_0":82,
						"COLOR_0":83
					},
					"indices":84
				}
			]
		},
		{
			"name":"DarkGreenTree_mergedObject_1.836",
			"primitives":[
				{
					"attributes":{
						"POSITION":85,
						"NORMAL":86,
						"TEXCOORD_0":87,
						"COLOR_0":88
					},
					"indices":89
				}
			]
		},
		{
			"name":"DarkGreenTree_mergedObject_1.1755",
			"primitives":[
				{
					"attributes":{
						"POSITION":90,
						"NORMAL":91,
						"TEXCOORD_0":92,
						"COLOR_0":93
					},
					"indices":94
				}
			]
		},
		{
			"name":"DarkGreenTree_mergedObject_1.1897",
			"primitives":[
				{
					"attributes":{
						"POSITION":95,
						"NORMAL":96,
						"TEXCOORD_0":97,
						"COLOR_0":98
					},
					"indices":99,
					"material":0
				},
				{
					"attributes":{
						"POSITION":100,
						"NORMAL":101,
						"TEXCOORD_0":102,
						"COLOR_0":103
					},
					"indices":104
				}
			]
		},
		{
			"name":"DarkGreenTree_mergedObject_1.2093",
			"primitives":[
				{
					"attributes":{
						"POSITION":105,
						"NORMAL":106,
						"TEXCOORD_0":107,
						"COLOR_0":108
					},
					"indices":109,
					"material":0
				},
				{
					"attributes":{
						"POSITION":110,
						"NORMAL":111,
						"TEXCOORD_0":112,
						"COLOR_0":113
					},
					"indices":114
				}
			]
		},
		{
			"name":"DarkGreenTree_mergedObject_1.2254",
			"primitives":[
				{
					"attributes":{
						"POSITION":115,
						"NORMAL":116,
						"TEXCOORD_0":117,
						"COLOR_0":118
					},
					"indices":119,
					"material":0
				},
				{
					"attributes":{
						"POSITION":120,
						"NORMAL":121,
						"TEXCOORD_0":122,
						"COLOR_0":123
					},
					"indices":124
				}
			]
		},
		{
			"name":"Domed_1",
			"primitives":[
				{
					"attributes":{
						"POSITION":125,
						"NORMAL":126,
						"TEXCOORD_0":127,
						"COLOR_0":128,
						"COLOR_1":129
					},
					"indices":130
				}
			]
		}
	],
	"textures":[
		{
			"sampler":0,
			"source":0
		}
	],
	"images":[
		{
			"mimeType":"image/png",
			"name":"BakedCycles.001_diffuse",
			"uri":"BakedCycles.001_diffuse.png"
		}
	],
	"accessors":[
		{
			"bufferView":0,
			"componentType":5126,
			"count":2088,
			"max":[
				0.912333071231842,
				3.8512144088745117,
				0.9888346195220947
			],
			"min":[
				-0.9025520086288452,
				-0.2884643077850342,
				-1.0182257890701294
			],
			"type":"VEC3"
		},
		{
			"bufferView":1,
			"componentType":5126,
			"count":2088,
			"type":"VEC3"
		},
		{
			"bufferView":2,
			"componentType":5126,
			"count":2088,
			"type":"VEC2"
		},
		{
			"bufferView":3,
			"componentType":5123,
			"count":2088,
			"normalized":true,
			"type":"VEC4"
		},
		{
			"bufferView":4,
			"componentType":5123,
			"count":12516,
			"type":"SCALAR"
		},
		{
			"bufferView":5,
			"componentType":5126,
			"count":2007,
			"max":[
				1.1641544103622437,
				4.007113456726074,
				1.1338481903076172
			],
			"min":[
				-1.165789246559143,
				-0.2512092590332031,
				-1.1867828369140625
			],
			"type":"VEC3"
		},
		{
			"bufferView":6,
			"componentType":5126,
			"count":2007,
			"type":"VEC3"
		},
		{
			"bufferView":7,
			"componentType":5126,
			"count":2007,
			"type":"VEC2"
		},
		{
			"bufferView":8,
			"componentType":5123,
			"count":2007,
			"normalized":true,
			"type":"VEC4"
		},
		{
			"bufferView":9,
			"componentType":5123,
			"count":12030,
			"type":"SCALAR"
		},
		{
			"bufferView":10,
			"componentType":5126,
			"count":2250,
			"max":[
				0.9695253372192383,
				3.8006954193115234,
				1.101755142211914
			],
			"min":[
				-1.2733690738677979,
				-0.23777174949645996,
				-1.165414810180664
			],
			"type":"VEC3"
		},
		{
			"bufferView":11,
			"componentType":5126,
			"count":2250,
			"type":"VEC3"
		},
		{
			"bufferView":12,
			"componentType":5126,
			"count":2250,
			"type":"VEC2"
		},
		{
			"bufferView":13,
			"componentType":5123,
			"count":2250,
			"normalized":true,
			"type":"VEC4"
		},
		{
			"bufferView":14,
			"componentType":5123,
			"count":13488,
			"type":"SCALAR"
		},
		{
			"bufferView":15,
			"componentType":5126,
			"count":3340,
			"max":[
				1.4654430150985718,
				3.7966201305389404,
				1.169682502746582
			],
			"min":[
				-1.3176028728485107,
				-0.41267943382263184,
				-1.081284523010254
			],
			"type":"VEC3"
		},
		{
			"bufferView":16,
			"componentType":5126,
			"count":3340,
			"type":"VEC3"
		},
		{
			"bufferView":17,
			"componentType":5126,
			"count":3340,
			"type":"VEC2"
		},
		{
			"bufferView":18,
			"componentType":5123,
			"count":3340,
			"normalized":true,
			"type":"VEC4"
		},
		{
			"bufferView":19,
			"componentType":5123,
			"count":19968,
			"type":"SCALAR"
		},
		{
			"bufferView":20,
			"componentType":5126,
			"count":16144,
			"max":[
				1.977751612663269,
				4.088590621948242,
				1.6180238723754883
			],
			"min":[
				-1.8253329992294312,
				-0.15565085411071777,
				-1.6639833450317383
			],
			"type":"VEC3"
		},
		{
			"bufferView":21,
			"componentType":5126,
			"count":16144,
			"type":"VEC3"
		},
		{
			"bufferView":22,
			"componentType":5126,
			"count":16144,
			"type":"VEC2"
		},
		{
			"bufferView":23,
			"componentType":5123,
			"count":16144,
			"normalized":true,
			"type":"VEC4"
		},
		{
			"bufferView":24,
			"componentType":5123,
			"count":97044,
			"type":"SCALAR"
		},
		{
			"bufferView":25,
			"componentType":5126,
			"count":4472,
			"max":[
				1.635352611541748,
				4.1720499992370605,
				1.3099384307861328
			],
			"min":[
				-1.6947282552719116,
				0.0844733715057373,
				-1.4494743347167969
			],
			"type":"VEC3"
		},
		{
			"bufferView":26,
			"componentType":5126,
			"count":4472,
			"type":"VEC3"
		},
		{
			"bufferView":27,
			"componentType":5126,
			"count":4472,
			"type":"VEC2"
		},
		{
			"bufferView":28,
			"componentType":5123,
			"count":4472,
			"normalized":true,
			"type":"VEC4"
		},
		{
			"bufferView":29,
			"componentType":5123,
			"count":26832,
			"type":"SCALAR"
		},
		{
			"bufferView":30,
			"componentType":5126,
			"count":3040,
			"max":[
				1.1811720132827759,
				4.145472526550293,
				1.244128704071045
			],
			"min":[
				-1.110970377922058,
				0.016716718673706055,
				-1.175492286682129
			],
			"type":"VEC3"
		},
		{
			"bufferView":31,
			"componentType":5126,
			"count":3040,
			"type":"VEC3"
		},
		{
			"bufferView":32,
			"componentType":5126,
			"count":3040,
			"type":"VEC2"
		},
		{
			"bufferView":33,
			"componentType":5123,
			"count":3040,
			"normalized":true,
			"type":"VEC4"
		},
		{
			"bufferView":34,
			"componentType":5123,
			"count":18240,
			"type":"SCALAR"
		},
		{
			"bufferView":35,
			"componentType":5126,
			"count":4801,
			"max":[
				0.7334302067756653,
				3.7636685371398926,
				0.9570350646972656
			],
			"min":[
				-0.8093699216842651,
				-0.3642921447753906,
				-0.9411506652832031
			],
			"type":"VEC3"
		},
		{
			"bufferView":36,
			"componentType":5126,
			"count":4801,
			"type":"VEC3"
		},
		{
			"bufferView":37,
			"componentType":5126,
			"count":4801,
			"type":"VEC2"
		},
		{
			"bufferView":38,
			"componentType":5123,
			"count":4801,
			"normalized":true,
			"type":"VEC4"
		},
		{
			"bufferView":39,
			"componentType":5123,
			"count":11436,
			"type":"SCALAR"
		},
		{
			"bufferView":40,
			"componentType":5126,
			"count":7542,
			"max":[
				0.9750725030899048,
				3.7417428493499756,
				0.9549102783203125
			],
			"min":[
				-0.9919064044952393,
				-0.2900667190551758,
				-0.9806861877441406
			],
			"type":"VEC3"
		},
		{
			"bufferView":41,
			"componentType":5126,
			"count":7542,
			"type":"VEC3"
		},
		{
			"bufferView":42,
			"componentType":5126,
			"count":7542,
			"type":"VEC2"
		},
		{
			"bufferView":43,
			"componentType":5123,
			"count":7542,
			"normalized":true,
			"type":"VEC4"
		},
		{
			"bufferView":44,
			"componentType":5123,
			"count":12372,
			"type":"SCALAR"
		},
		{
			"bufferView":45,
			"componentType":5126,
			"count":9614,
			"max":[
				0.9262146949768066,
				3.9516167640686035,
				1.2250633239746094
			],
			"min":[
				-1.053475260734558,
				-0.3003509044647217,
				-1.1537628173828125
			],
			"type":"VEC3"
		},
		{
			"bufferView":46,
			"componentType":5126,
			"count":9614,
			"type":"VEC3"
		},
		{
			"bufferView":47,
			"componentType":5126,
			"count":9614,
			"type":"VEC2"
		},
		{
			"bufferView":48,
			"componentType":5123,
			"count":9614,
			"normalized":true,
			"type":"VEC4"
		},
		{
			"bufferView":49,
			"componentType":5123,
			"count":14676,
			"type":"SCALAR"
		},
		{
			"bufferView":50,
			"componentType":5126,
			"count":63795,
			"max":[
				1.7724716663360596,
				4.338586807250977,
				2.2748851776123047
			],
			"min":[
				-1.8555495738983154,
				-0.17274275422096252,
				-1.7597332000732422
			],
			"type":"VEC3"
		},
		{
			"bufferView":51,
			"componentType":5126,
			"count":63795,
			"type":"VEC3"
		},
		{
			"bufferView":52,
			"componentType":5126,
			"count":63795,
			"type":"VEC2"
		},
		{
			"bufferView":53,
			"componentType":5123,
			"count":63795,
			"normalized":true,
			"type":"VEC4"
		},
		{
			"bufferView":54,
			"componentType":5123,
			"count":96984,
			"type":"SCALAR"
		},
		{
			"bufferView":55,
			"componentType":5126,
			"count":12690,
			"max":[
				1.6191155910491943,
				4.120715141296387,
				1.4713444709777832
			],
			"min":[
				-1.4863226413726807,
				-0.10837221145629883,
				-1.4607582092285156
			],
			"type":"VEC3"
		},
		{
			"bufferView":56,
			"componentType":5126,
			"count":12690,
			"type":"VEC3"
		},
		{
			"bufferView":57,
			"componentType":5126,
			"count":12690,
			"type":"VEC2"
		},
		{
			"bufferView":58,
			"componentType":5123,
			"count":12690,
			"normalized":true,
			"type":"VEC4"
		},
		{
			"bufferView":59,
			"componentType":5123,
			"count":76296,
			"type":"SCALAR"
		},
		{
			"bufferView":60,
			"componentType":5126,
			"count":9701,
			"max":[
				1.0522406101226807,
				3.9353888034820557,
				1.2219390869140625
			],
			"min":[
				-0.9899174571037292,
				-0.13077926635742188,
				-1.1068649291992188
			],
			"type":"VEC3"
		},
		{
			"bufferView":61,
			"componentType":5126,
			"count":9701,
			"type":"VEC3"
		},
		{
			"bufferView":62,
			"componentType":5126,
			"count":9701,
			"type":"VEC2"
		},
		{
			"bufferView":63,
			"componentType":5123,
			"count":9701,
			"normalized":true,
			"type":"VEC4"
		},
		{
			"bufferView":64,
			"componentType":5123,
			"count":16092,
			"type":"SCALAR"
		},
		{
			"bufferView":65,
			"componentType":5126,
			"count":2386,
			"max":[
				1.1887773275375366,
				3.8401827812194824,
				1.2113234996795654
			],
			"min":[
				-1.110981822013855,
				-0.2887392044067383,
				-1.1678078174591064
			],
			"type":"VEC3"
		},
		{
			"bufferView":66,
			"componentType":5126,
			"count":2386,
			"type":"VEC3"
		},
		{
			"bufferView":67,
			"componentType":5126,
			"count":2386,
			"type":"VEC2"
		},
		{
			"bufferView":68,
			"componentType":5123,
			"count":2386,
			"normalized":true,
			"type":"VEC4"
		},
		{
			"bufferView":69,
			"componentType":5123,
			"count":14304,
			"type":"SCALAR"
		},
		{
			"bufferView":70,
			"componentType":5126,
			"count":8454,
			"max":[
				1.1026822328567505,
				3.9991893768310547,
				0.6125133037567139
			],
			"min":[
				-1.176261067390442,
				-0.19370651245117188,
				-0.7931125164031982
			],
			"type":"VEC3"
		},
		{
			"bufferView":71,
			"componentType":5126,
			"count":8454,
			"type":"VEC3"
		},
		{
			"bufferView":72,
			"componentType":5126,
			"count":8454,
			"type":"VEC2"
		},
		{
			"bufferView":73,
			"componentType":5123,
			"count":8454,
			"normalized":true,
			"type":"VEC4"
		},
		{
			"bufferView":74,
			"componentType":5123,
			"count":50712,
			"type":"SCALAR"
		},
		{
			"bufferView":75,
			"componentType":5126,
			"count":1679,
			"max":[
				1.9088797569274902,
				4.427168369293213,
				1.6010665893554688
			],
			"min":[
				-1.5499267578125,
				-0.17904528975486755,
				-1.496957778930664
			],
			"type":"VEC3"
		},
		{
			"bufferView":76,
			"componentType":5126,
			"count":1679,
			"type":"VEC3"
		},
		{
			"bufferView":77,
			"componentType":5126,
			"count":1679,
			"type":"VEC2"
		},
		{
			"bufferView":78,
			"componentType":5123,
			"count":1679,
			"normalized":true,
			"type":"VEC4"
		},
		{
			"bufferView":79,
			"componentType":5123,
			"count":2028,
			"type":"SCALAR"
		},
		{
			"bufferView":80,
			"componentType":5126,
			"count":534,
			"max":[
				0.8153472542762756,
				4.142175197601318,
				0.9005241394042969
			],
			"min":[
				-0.6249527335166931,
				-0.49842286109924316,
				-0.7961483001708984
			],
			"type":"VEC3"
		},
		{
			"bufferView":81,
			"componentType":5126,
			"count":534,
			"type":"VEC3"
		},
		{
			"bufferView":82,
			"componentType":5126,
			"count":534,
			"type":"VEC2"
		},
		{
			"bufferView":83,
			"componentType":5123,
			"count":534,
			"normalized":true,
			"type":"VEC4"
		},
		{
			"bufferView":84,
			"componentType":5123,
			"count":684,
			"type":"SCALAR"
		},
		{
			"bufferView":85,
			"componentType":5126,
			"count":1363,
			"max":[
				0.854087233543396,
				4.117471694946289,
				0.7191371917724609
			],
			"min":[
				-1.035232663154602,
				-0.054782092571258545,
				-0.8371334075927734
			],
			"type":"VEC3"
		},
		{
			"bufferView":86,
			"componentType":5126,
			"count":1363,
			"type":"VEC3"
		},
		{
			"bufferView":87,
			"componentType":5126,
			"count":1363,
			"type":"VEC2"
		},
		{
			"bufferView":88,
			"componentType":5123,
			"count":1363,
			"normalized":true,
			"type":"VEC4"
		},
		{
			"bufferView":89,
			"componentType":5123,
			"count":1680,
			"type":"SCALAR"
		},
		{
			"bufferView":90,
			"componentType":5126,
			"count":532,
			"max":[
				0.8010997176170349,
				4.013920783996582,
				1.1244220733642578
			],
			"min":[
				-0.723010241985321,
				-0.044818878173828125,
				-0.9182033538818359
			],
			"type":"VEC3"
		},
		{
			"bufferView":91,
			"componentType":5126,
			"count":532,
			"type":"VEC3"
		},
		{
			"bufferView":92,
			"componentType":5126,
			"count":532,
			"type":"VEC2"
		},
		{
			"bufferView":93,
			"componentType":5123,
			"count":532,
			"normalized":true,
			"type":"VEC4"
		},
		{
			"bufferView":94,
			"componentType":5123,
			"count":726,
			"type":"SCALAR"
		},
		{
			"bufferView":95,
			"componentType":5126,
			"count":496,
			"max":[
				1.0755903720855713,
				4.313875675201416,
				1.244466781616211
			],
			"min":[
				-1.0844995975494385,
				0.5775612592697144,
				-1.2497940063476562
			],
			"type":"VEC3"
		},
		{
			"bufferView":96,
			"componentType":5126,
			"count":496,
			"type":"VEC3"
		},
		{
			"bufferView":97,
			"componentType":5126,
			"count":496,
			"type":"VEC2"
		},
		{
			"bufferView":98,
			"componentType":5123,
			"count":496,
			"normalized":true,
			"type":"VEC4"
		},
		{
			"bufferView":99,
			"componentType":5123,
			"count":744,
			"type":"SCALAR"
		},
		{
			"bufferView":100,
			"componentType":5126,
			"count":434,
			"max":[
				0.43588536977767944,
				3.7525792121887207,
				0.5058040618896484
			],
			"min":[
				-0.44480955600738525,
				0.00872841477394104,
				-0.5111198425292969
			],
			"type":"VEC3"
		},
		{
			"bufferView":101,
			"componentType":5126,
			"count":434,
			"type":"VEC3"
		},
		{
			"bufferView":102,
			"componentType":5126,
			"count":434,
			"type":"VEC2"
		},
		{
			"bufferView":103,
			"componentType":5123,
			"count":434,
			"normalized":true,
			"type":"VEC4"
		},
		{
			"bufferView":104,
			"componentType":5123,
			"count":588,
			"type":"SCALAR"
		},
		{
			"bufferView":105,
			"componentType":5126,
			"count":456,
			"max":[
				1.1668224334716797,
				4.355198383331299,
				1.232095718383789
			],
			"min":[
				-1.1562275886535645,
				0.6188838481903076,
				-1.2337989807128906
			],
			"type":"VEC3"
		},
		{
			"bufferView":106,
			"componentType":5126,
			"count":456,
			"type":"VEC3"
		},
		{
			"bufferView":107,
			"componentType":5126,
			"count":456,
			"type":"VEC2"
		},
		{
			"bufferView":108,
			"componentType":5123,
			"count":456,
			"normalized":true,
			"type":"VEC4"
		},
		{
			"bufferView":109,
			"componentType":5123,
			"count":720,
			"type":"SCALAR"
		},
		{
			"bufferView":110,
			"componentType":5126,
			"count":407,
			"max":[
				0.5445473194122314,
				3.7939016819000244,
				0.6218061447143555
			],
			"min":[
				-0.5339676737785339,
				0.05005088448524475,
				-0.6235389709472656
			],
			"type":"VEC3"
		},
		{
			"bufferView":111,
			"componentType":5126,
			"count":407,
			"type":"VEC3"
		},
		{
			"bufferView":112,
			"componentType":5126,
			"count":407,
			"type":"VEC2"
		},
		{
			"bufferView":113,
			"componentType":5123,
			"count":407,
			"normalized":true,
			"type":"VEC4"
		},
		{
			"bufferView":114,
			"componentType":5123,
			"count":558,
			"type":"SCALAR"
		},
		{
			"bufferView":115,
			"componentType":5126,
			"count":468,
			"max":[
				1.237200140953064,
				4.339944362640381,
				1.2327203750610352
			],
			"min":[
				-1.1347050666809082,
				0.5335997343063354,
				-1.2331733703613281
			],
			"type":"VEC3"
		},
		{
			"bufferView":116,
			"componentType":5126,
			"count":468,
			"type":"VEC3"
		},
		{
			"bufferView":117,
			"componentType":5126,
			"count":468,
			"type":"VEC2"
		},
		{
			"bufferView":118,
			"componentType":5123,
			"count":468,
			"normalized":true,
			"type":"VEC4"
		},
		{
			"bufferView":119,
			"componentType":5123,
			"count":732,
			"type":"SCALAR"
		},
		{
			"bufferView":120,
			"componentType":5126,
			"count":411,
			"max":[
				0.4339800775051117,
				3.7784719467163086,
				0.507725715637207
			],
			"min":[
				-0.4462948739528656,
				0.034621864557266235,
				-0.5087184906005859
			],
			"type":"VEC3"
		},
		{
			"bufferView":121,
			"componentType":5126,
			"count":411,
			"type":"VEC3"
		},
		{
			"bufferView":122,
			"componentType":5126,
			"count":411,
			"type":"VEC2"
		},
		{
			"bufferView":123,
			"componentType":5123,
			"count":411,
			"normalized":true,
			"type":"VEC4"
		},
		{
			"bufferView":124,
			"componentType":5123,
			"count":570,
			"type":"SCALAR"
		},
		{
			"bufferView":125,
			"componentType":5126,
			"count":30725,
			"max":[
				2.7908918857574463,
				5.179684638977051,
				2.547138214111328
			],
			"min":[
				-2.8351848125457764,
				-0.23875164985656738,
				-3.0775375366210938
			],
			"type":"VEC3"
		},
		{
			"bufferView":126,
			"componentType":5126,
			"count":30725,
			"type":"VEC3"
		},
		{
			"bufferView":127,
			"componentType":5126,
			"count":30725,
			"type":"VEC2"
		},
		{
			"bufferView":128,
			"componentType":5123,
			"count":30725,
			"normalized":true,
			"type":"VEC4"
		},
		{
			"bufferView":129,
			"componentType":5123,
			"count":30725,
			"normalized":true,
			"type":"VEC4"
		},
		{
			"bufferView":130,
			"componentType":5123,
			"count":51420,
			"type":"SCALAR"
		}
	],
	"bufferViews":[
		{
			"buffer":0,
			"byteLength":25056,
			"byteOffset":0,
			"target":34962
		},
		{
			"buffer":0,
			"byteLength":25056,
			"byteOffset":25056,
			"target":34962
		},
		{
			"buffer":0,
			"byteLength":16704,
			"byteOffset":50112,
			"target":34962
		},
		{
			"buffer":0,
			"byteLength":16704,
			"byteOffset":66816,
			"target":34962
		},
		{
			"buffer":0,
			"byteLength":25032,
			"byteOffset":83520,
			"target":34963
		},
		{
			"buffer":0,
			"byteLength":24084,
			"byteOffset":108552,
			"target":34962
		},
		{
			"buffer":0,
			"byteLength":24084,
			"byteOffset":132636,
			"target":34962
		},
		{
			"buffer":0,
			"byteLength":16056,
			"byteOffset":156720,
			"target":34962
		},
		{
			"buffer":0,
			"byteLength":16056,
			"byteOffset":172776,
			"target":34962
		},
		{
			"buffer":0,
			"byteLength":24060,
			"byteOffset":188832,
			"target":34963
		},
		{
			"buffer":0,
			"byteLength":27000,
			"byteOffset":212892,
			"target":34962
		},
		{
			"buffer":0,
			"byteLength":27000,
			"byteOffset":239892,
			"target":34962
		},
		{
			"buffer":0,
			"byteLength":18000,
			"byteOffset":266892,
			"target":34962
		},
		{
			"buffer":0,
			"byteLength":18000,
			"byteOffset":284892,
			"target":34962
		},
		{
			"buffer":0,
			"byteLength":26976,
			"byteOffset":302892,
			"target":34963
		},
		{
			"buffer":0,
			"byteLength":40080,
			"byteOffset":329868,
			"target":34962
		},
		{
			"buffer":0,
			"byteLength":40080,
			"byteOffset":369948,
			"target":34962
		},
		{
			"buffer":0,
			"byteLength":26720,
			"byteOffset":410028,
			"target":34962
		},
		{
			"buffer":0,
			"byteLength":26720,
			"byteOffset":436748,
			"target":34962
		},
		{
			"buffer":0,
			"byteLength":39936,
			"byteOffset":463468,
			"target":34963
		},
		{
			"buffer":0,
			"byteLength":193728,
			"byteOffset":503404,
			"target":34962
		},
		{
			"buffer":0,
			"byteLength":193728,
			"byteOffset":697132,
			"target":34962
		},
		{
			"buffer":0,
			"byteLength":129152,
			"byteOffset":890860,
			"target":34962
		},
		{
			"buffer":0,
			"byteLength":129152,
			"byteOffset":1020012,
			"target":34962
		},
		{
			"buffer":0,
			"byteLength":194088,
			"byteOffset":1149164,
			"target":34963
		},
		{
			"buffer":0,
			"byteLength":53664,
			"byteOffset":1343252,
			"target":34962
		},
		{
			"buffer":0,
			"byteLength":53664,
			"byteOffset":1396916,
			"target":34962
		},
		{
			"buffer":0,
			"byteLength":35776,
			"byteOffset":1450580,
			"target":34962
		},
		{
			"buffer":0,
			"byteLength":35776,
			"byteOffset":1486356,
			"target":34962
		},
		{
			"buffer":0,
			"byteLength":53664,
			"byteOffset":1522132,
			"target":34963
		},
		{
			"buffer":0,
			"byteLength":36480,
			"byteOffset":1575796,
			"target":34962
		},
		{
			"buffer":0,
			"byteLength":36480,
			"byteOffset":1612276,
			"target":34962
		},
		{
			"buffer":0,
			"byteLength":24320,
			"byteOffset":1648756,
			"target":34962
		},
		{
			"buffer":0,
			"byteLength":24320,
			"byteOffset":1673076,
			"target":34962
		},
		{
			"buffer":0,
			"byteLength":36480,
			"byteOffset":1697396,
			"target":34963
		},
		{
			"buffer":0,
			"byteLength":57612,
			"byteOffset":1733876,
			"target":34962
		},
		{
			"buffer":0,
			"byteLength":57612,
			"byteOffset":1791488,
			"target":34962
		},
		{
			"buffer":0,
			"byteLength":38408,
			"byteOffset":1849100,
			"target":34962
		},
		{
			"buffer":0,
			"byteLength":38408,
			"byteOffset":1887508,
			"target":34962
		},
		{
			"buffer":0,
			"byteLength":22872,
			"byteOffset":1925916,
			"target":34963
		},
		{
			"buffer":0,
			"byteLength":90504,
			"byteOffset":1948788,
			"target":34962
		},
		{
			"buffer":0,
			"byteLength":90504,
			"byteOffset":2039292,
			"target":34962
		},
		{
			"buffer":0,
			"byteLength":60336,
			"byteOffset":2129796,
			"target":34962
		},
		{
			"buffer":0,
			"byteLength":60336,
			"byteOffset":2190132,
			"target":34962
		},
		{
			"buffer":0,
			"byteLength":24744,
			"byteOffset":2250468,
			"target":34963
		},
		{
			"buffer":0,
			"byteLength":115368,
			"byteOffset":2275212,
			"target":34962
		},
		{
			"buffer":0,
			"byteLength":115368,
			"byteOffset":2390580,
			"target":34962
		},
		{
			"buffer":0,
			"byteLength":76912,
			"byteOffset":2505948,
			"target":34962
		},
		{
			"buffer":0,
			"byteLength":76912,
			"byteOffset":2582860,
			"target":34962
		},
		{
			"buffer":0,
			"byteLength":29352,
			"byteOffset":2659772,
			"target":34963
		},
		{
			"buffer":0,
			"byteLength":765540,
			"byteOffset":2689124,
			"target":34962
		},
		{
			"buffer":0,
			"byteLength":765540,
			"byteOffset":3454664,
			"target":34962
		},
		{
			"buffer":0,
			"byteLength":510360,
			"byteOffset":4220204,
			"target":34962
		},
		{
			"buffer":0,
			"byteLength":510360,
			"byteOffset":4730564,
			"target":34962
		},
		{
			"buffer":0,
			"byteLength":193968,
			"byteOffset":5240924,
			"target":34963
		},
		{
			"buffer":0,
			"byteLength":152280,
			"byteOffset":5434892,
			"target":34962
		},
		{
			"buffer":0,
			"byteLength":152280,
			"byteOffset":5587172,
			"target":34962
		},
		{
			"buffer":0,
			"byteLength":101520,
			"byteOffset":5739452,
			"target":34962
		},
		{
			"buffer":0,
			"byteLength":101520,
			"byteOffset":5840972,
			"target":34962
		},
		{
			"buffer":0,
			"byteLength":152592,
			"byteOffset":5942492,
			"target":34963
		},
		{
			"buffer":0,
			"byteLength":116412,
			"byteOffset":6095084,
			"target":34962
		},
		{
			"buffer":0,
			"byteLength":116412,
			"byteOffset":6211496,
			"target":34962
		},
		{
			"buffer":0,
			"byteLength":77608,
			"byteOffset":6327908,
			"target":34962
		},
		{
			"buffer":0,
			"byteLength":77608,
			"byteOffset":6405516,
			"target":34962
		},
		{
			"buffer":0,
			"byteLength":32184,
			"byteOffset":6483124,
			"target":34963
		},
		{
			"buffer":0,
			"byteLength":28632,
			"byteOffset":6515308,
			"target":34962
		},
		{
			"buffer":0,
			"byteLength":28632,
			"byteOffset":6543940,
			"target":34962
		},
		{
			"buffer":0,
			"byteLength":19088,
			"byteOffset":6572572,
			"target":34962
		},
		{
			"buffer":0,
			"byteLength":19088,
			"byteOffset":6591660,
			"target":34962
		},
		{
			"buffer":0,
			"byteLength":28608,
			"byteOffset":6610748,
			"target":34963
		},
		{
			"buffer":0,
			"byteLength":101448,
			"byteOffset":6639356,
			"target":34962
		},
		{
			"buffer":0,
			"byteLength":101448,
			"byteOffset":6740804,
			"target":34962
		},
		{
			"buffer":0,
			"byteLength":67632,
			"byteOffset":6842252,
			"target":34962
		},
		{
			"buffer":0,
			"byteLength":67632,
			"byteOffset":6909884,
			"target":34962
		},
		{
			"buffer":0,
			"byteLength":101424,
			"byteOffset":6977516,
			"target":34963
		},
		{
			"buffer":0,
			"byteLength":20148,
			"byteOffset":7078940,
			"target":34962
		},
		{
			"buffer":0,
			"byteLength":20148,
			"byteOffset":7099088,
			"target":34962
		},
		{
			"buffer":0,
			"byteLength":13432,
			"byteOffset":7119236,
			"target":34962
		},
		{
			"buffer":0,
			"byteLength":13432,
			"byteOffset":7132668,
			"target":34962
		},
		{
			"buffer":0,
			"byteLength":4056,
			"byteOffset":7146100,
			"target":34963
		},
		{
			"buffer":0,
			"byteLength":6408,
			"byteOffset":7150156,
			"target":34962
		},
		{
			"buffer":0,
			"byteLength":6408,
			"byteOffset":7156564,
			"target":34962
		},
		{
			"buffer":0,
			"byteLength":4272,
			"byteOffset":7162972,
			"target":34962
		},
		{
			"buffer":0,
			"byteLength":4272,
			"byteOffset":7167244,
			"target":34962
		},
		{
			"buffer":0,
			"byteLength":1368,
			"byteOffset":7171516,
			"target":34963
		},
		{
			"buffer":0,
			"byteLength":16356,
			"byteOffset":7172884,
			"target":34962
		},
		{
			"buffer":0,
			"byteLength":16356,
			"byteOffset":7189240,
			"target":34962
		},
		{
			"buffer":0,
			"byteLength":10904,
			"byteOffset":7205596,
			"target":34962
		},
		{
			"buffer":0,
			"byteLength":10904,
			"byteOffset":7216500,
			"target":34962
		},
		{
			"buffer":0,
			"byteLength":3360,
			"byteOffset":7227404,
			"target":34963
		},
		{
			"buffer":0,
			"byteLength":6384,
			"byteOffset":7230764,
			"target":34962
		},
		{
			"buffer":0,
			"byteLength":6384,
			"byteOffset":7237148,
			"target":34962
		},
		{
			"buffer":0,
			"byteLength":4256,
			"byteOffset":7243532,
			"target":34962
		},
		{
			"buffer":0,
			"byteLength":4256,
			"byteOffset":7247788,
			"target":34962
		},
		{
			"buffer":0,
			"byteLength":1452,
			"byteOffset":7252044,
			"target":34963
		},
		{
			"buffer":0,
			"byteLength":5952,
			"byteOffset":7253496,
			"target":34962
		},
		{
			"buffer":0,
			"byteLength":5952,
			"byteOffset":7259448,
			"target":34962
		},
		{
			"buffer":0,
			"byteLength":3968,
			"byteOffset":7265400,
			"target":34962
		},
		{
			"buffer":0,
			"byteLength":3968,
			"byteOffset":7269368,
			"target":34962
		},
		{
			"buffer":0,
			"byteLength":1488,
			"byteOffset":7273336,
			"target":34963
		},
		{
			"buffer":0,
			"byteLength":5208,
			"byteOffset":7274824,
			"target":34962
		},
		{
			"buffer":0,
			"byteLength":5208,
			"byteOffset":7280032,
			"target":34962
		},
		{
			"buffer":0,
			"byteLength":3472,
			"byteOffset":7285240,
			"target":34962
		},
		{
			"buffer":0,
			"byteLength":3472,
			"byteOffset":7288712,
			"target":34962
		},
		{
			"buffer":0,
			"byteLength":1176,
			"byteOffset":7292184,
			"target":34963
		},
		{
			"buffer":0,
			"byteLength":5472,
			"byteOffset":7293360,
			"target":34962
		},
		{
			"buffer":0,
			"byteLength":5472,
			"byteOffset":7298832,
			"target":34962
		},
		{
			"buffer":0,
			"byteLength":3648,
			"byteOffset":7304304,
			"target":34962
		},
		{
			"buffer":0,
			"byteLength":3648,
			"byteOffset":7307952,
			"target":34962
		},
		{
			"buffer":0,
			"byteLength":1440,
			"byteOffset":7311600,
			"target":34963
		},
		{
			"buffer":0,
			"byteLength":4884,
			"byteOffset":7313040,
			"target":34962
		},
		{
			"buffer":0,
			"byteLength":4884,
			"byteOffset":7317924,
			"target":34962
		},
		{
			"buffer":0,
			"byteLength":3256,
			"byteOffset":7322808,
			"target":34962
		},
		{
			"buffer":0,
			"byteLength":3256,
			"byteOffset":7326064,
			"target":34962
		},
		{
			"buffer":0,
			"byteLength":1116,
			"byteOffset":7329320,
			"target":34963
		},
		{
			"buffer":0,
			"byteLength":5616,
			"byteOffset":7330436,
			"target":34962
		},
		{
			"buffer":0,
			"byteLength":5616,
			"byteOffset":7336052,
			"target":34962
		},
		{
			"buffer":0,
			"byteLength":3744,
			"byteOffset":7341668,
			"target":34962
		},
		{
			"buffer":0,
			"byteLength":3744,
			"byteOffset":7345412,
			"target":34962
		},
		{
			"buffer":0,
			"byteLength":1464,
			"byteOffset":7349156,
			"target":34963
		},
		{
			"buffer":0,
			"byteLength":4932,
			"byteOffset":7350620,
			"target":34962
		},
		{
			"buffer":0,
			"byteLength":4932,
			"byteOffset":7355552,
			"target":34962
		},
		{
			"buffer":0,
			"byteLength":3288,
			"byteOffset":7360484,
			"target":34962
		},
		{
			"buffer":0,
			"byteLength":3288,
			"byteOffset":7363772,
			"target":34962
		},
		{
			"buffer":0,
			"byteLength":1140,
			"byteOffset":7367060,
			"target":34963
		},
		{
			"buffer":0,
			"byteLength":368700,
			"byteOffset":7368200,
			"target":34962
		},
		{
			"buffer":0,
			"byteLength":368700,
			"byteOffset":7736900,
			"target":34962
		},
		{
			"buffer":0,
			"byteLength":245800,
			"byteOffset":8105600,
			"target":34962
		},
		{
			"buffer":0,
			"byteLength":245800,
			"byteOffset":8351400,
			"target":34962
		},
		{
			"buffer":0,
			"byteLength":245800,
			"byteOffset":8597200,
			"target":34962
		},
		{
			"buffer":0,
			"byteLength":102840,
			"byteOffset":8843000,
			"target":34963
		}
	],
	"samplers":[
		{
			"magFilter":9729,
			"minFilter":9987
		}
	],
	"buffers":[
		{
			"byteLength":8945840,
			"uri":"scene.bin"
		}
	]
}
